<svg width="154" height="56" viewBox="0 0 154 56" fill="none" xmlns="http://www.w3.org/2000/svg">
<path d="M28 37.8823C22.5422 37.8823 18.1177 33.4579 18.1177 28C18.1177 22.5421 22.5422 18.1176 28 18.1176C33.4579 18.1176 37.8824 22.5421 37.8824 28C37.8824 33.4579 33.4579 37.8823 28 37.8823Z" fill="#AE9AFF"/>
<path d="M8.93455 31.9937C6.1019 32.4841 4.16027 35.1703 5.24764 37.7846C6.76572 41.4344 9.18763 44.6861 12.3275 47.2272C16.8172 50.8604 22.48 52.8019 28.2977 52.7022C34.1153 52.6026 39.7058 50.4683 44.0637 46.6833C47.1111 44.0363 49.416 40.7034 50.8036 37.004C51.7973 34.354 49.7612 31.7359 46.9129 31.3429C44.0647 30.95 41.5073 32.9853 40.1004 35.4483C39.3378 36.7833 38.3477 37.9945 37.1617 39.0246C34.6614 41.1964 31.4538 42.4208 28.116 42.4781C24.7781 42.5352 21.529 41.4214 18.953 39.3366C17.731 38.3478 16.6986 37.1713 15.8889 35.8632C14.3954 33.4499 11.7672 31.5034 8.93455 31.9937Z" fill="#AE9AFF"/>
<path d="M52.5148 30.4583C52.641 29.4698 52.7059 28.4627 52.7059 27.4408C52.7059 14.105 41.6447 3.29413 28 3.29413C14.3553 3.29413 3.29413 14.105 3.29413 27.4408C3.29413 28.7523 3.4011 30.0393 3.607 31.2941C4.74179 29.7758 6.51291 28.6919 8.42597 28.3622C10.4958 28.0055 12.377 28.4962 13.9675 29.4133C13.8736 28.769 13.8249 28.1105 13.8249 27.4408C13.8249 19.7894 20.1714 13.5866 28 13.5866C35.8286 13.5866 42.1751 19.7894 42.1751 27.4408C42.1751 27.9453 42.1474 28.4435 42.0937 28.934C43.6507 27.9629 45.5135 27.408 47.5952 27.694C49.5183 27.9582 51.3265 28.9804 52.5148 30.4583Z" fill="#5429FF"/>
<path d="M73.904 30.5V10.9H81.156C82.724 10.9 84.0213 11.1613 85.048 11.684C86.0747 12.2067 86.84 12.9253 87.344 13.84C87.848 14.7547 88.1 15.7813 88.1 16.92C88.1 18.0027 87.8573 19.0013 87.372 19.916C86.8867 20.812 86.1307 21.54 85.104 22.1C84.0773 22.6413 82.7613 22.912 81.156 22.912H77.488V30.5H73.904ZM77.488 20H80.932C82.1827 20 83.0787 19.7293 83.62 19.188C84.18 18.628 84.46 17.872 84.46 16.92C84.46 15.9493 84.18 15.1933 83.62 14.652C83.0787 14.092 82.1827 13.812 80.932 13.812H77.488V20ZM90.9118 30.5V10.9H94.4958L103.708 24.704V10.9H107.292V30.5H103.708L94.4958 16.724V30.5H90.9118ZM111.092 30.5V10.9H123.748V13.784H114.676V19.272H122.012V22.1H114.676V30.5H111.092ZM131.077 30.5V13.784H125.365V10.9H140.401V13.784H134.661V30.5H131.077ZM142.27 30.696C141.617 30.696 141.075 30.4907 140.646 30.08C140.235 29.6693 140.03 29.1747 140.03 28.596C140.03 27.9987 140.235 27.4947 140.646 27.084C141.075 26.6733 141.617 26.468 142.27 26.468C142.923 26.468 143.455 26.6733 143.866 27.084C144.295 27.4947 144.51 27.9987 144.51 28.596C144.51 29.1747 144.295 29.6693 143.866 30.08C143.455 30.4907 142.923 30.696 142.27 30.696Z" fill="#27262E"/>
<path d="M72.68 50.5V43.5H73.96L77.25 48.43V43.5H78.53V50.5H77.25L73.96 45.58V50.5H72.68ZM79.887 50.5V43.5H84.407V44.53H81.167V46.49H83.787V47.5H81.167V50.5H79.887ZM87.0248 50.5V44.53H84.9848V43.5H90.3548V44.53H88.3048V50.5H87.0248ZM93.6859 50.5V43.5H95.2059L97.4359 47.94L99.6359 43.5H101.156V50.5H99.8759V45.67L97.9259 49.5H96.9159L94.9659 45.67V50.5H93.6859ZM104.194 50.62C103.767 50.62 103.417 50.5533 103.144 50.42C102.871 50.28 102.667 50.0967 102.534 49.87C102.401 49.6433 102.334 49.3933 102.334 49.12C102.334 48.66 102.514 48.2867 102.874 48C103.234 47.7133 103.774 47.57 104.494 47.57H105.754V47.45C105.754 47.11 105.657 46.86 105.464 46.7C105.271 46.54 105.031 46.46 104.744 46.46C104.484 46.46 104.257 46.5233 104.064 46.65C103.871 46.77 103.751 46.95 103.704 47.19H102.454C102.487 46.83 102.607 46.5167 102.814 46.25C103.027 45.9833 103.301 45.78 103.634 45.64C103.967 45.4933 104.341 45.42 104.754 45.42C105.461 45.42 106.017 45.5967 106.424 45.95C106.831 46.3033 107.034 46.8033 107.034 47.45V50.5H105.944L105.824 49.7C105.677 49.9667 105.471 50.1867 105.204 50.36C104.944 50.5333 104.607 50.62 104.194 50.62ZM104.484 49.62C104.851 49.62 105.134 49.5 105.334 49.26C105.541 49.02 105.671 48.7233 105.724 48.37H104.634C104.294 48.37 104.051 48.4333 103.904 48.56C103.757 48.68 103.684 48.83 103.684 49.01C103.684 49.2033 103.757 49.3533 103.904 49.46C104.051 49.5667 104.244 49.62 104.484 49.62ZM108.255 50.5V45.54H109.395L109.515 46.47C109.695 46.15 109.939 45.8967 110.245 45.71C110.559 45.5167 110.925 45.42 111.345 45.42V46.77H110.985C110.705 46.77 110.455 46.8133 110.235 46.9C110.015 46.9867 109.842 47.1367 109.715 47.35C109.595 47.5633 109.535 47.86 109.535 48.24V50.5H108.255ZM112.22 50.5V43.3H113.5V47.55L115.26 45.54H116.78L114.75 47.8L117.11 50.5H115.51L113.5 48.01V50.5H112.22ZM119.904 50.62C119.404 50.62 118.96 50.5133 118.574 50.3C118.187 50.0867 117.884 49.7867 117.664 49.4C117.444 49.0133 117.334 48.5667 117.334 48.06C117.334 47.5467 117.44 47.09 117.654 46.69C117.874 46.29 118.174 45.98 118.554 45.76C118.94 45.5333 119.394 45.42 119.914 45.42C120.4 45.42 120.83 45.5267 121.204 45.74C121.577 45.9533 121.867 46.2467 122.074 46.62C122.287 46.9867 122.394 47.3967 122.394 47.85C122.394 47.9233 122.39 48 122.384 48.08C122.384 48.16 122.38 48.2433 122.374 48.33H118.604C118.63 48.7167 118.764 49.02 119.004 49.24C119.25 49.46 119.547 49.57 119.894 49.57C120.154 49.57 120.37 49.5133 120.544 49.4C120.724 49.28 120.857 49.1267 120.944 48.94H122.244C122.15 49.2533 121.994 49.54 121.774 49.8C121.56 50.0533 121.294 50.2533 120.974 50.4C120.66 50.5467 120.304 50.62 119.904 50.62ZM119.914 46.46C119.6 46.46 119.324 46.55 119.084 46.73C118.844 46.9033 118.69 47.17 118.624 47.53H121.094C121.074 47.2033 120.954 46.9433 120.734 46.75C120.514 46.5567 120.24 46.46 119.914 46.46ZM125.592 50.5C125.072 50.5 124.656 50.3733 124.342 50.12C124.029 49.8667 123.872 49.4167 123.872 48.77V46.61H123.022V45.54H123.872L124.022 44.21H125.152V45.54H126.492V46.61H125.152V48.78C125.152 49.02 125.202 49.1867 125.302 49.28C125.409 49.3667 125.589 49.41 125.842 49.41H126.462V50.5H125.592ZM127.591 52.7V45.54H128.731L128.871 46.25C129.031 46.03 129.241 45.8367 129.501 45.67C129.768 45.5033 130.111 45.42 130.531 45.42C130.998 45.42 131.415 45.5333 131.781 45.76C132.148 45.9867 132.438 46.2967 132.651 46.69C132.865 47.0833 132.971 47.53 132.971 48.03C132.971 48.53 132.865 48.9767 132.651 49.37C132.438 49.7567 132.148 50.0633 131.781 50.29C131.415 50.51 130.998 50.62 130.531 50.62C130.158 50.62 129.831 50.55 129.551 50.41C129.271 50.27 129.045 50.0733 128.871 49.82V52.7H127.591ZM130.261 49.5C130.668 49.5 131.005 49.3633 131.271 49.09C131.538 48.8167 131.671 48.4633 131.671 48.03C131.671 47.5967 131.538 47.24 131.271 46.96C131.005 46.68 130.668 46.54 130.261 46.54C129.848 46.54 129.508 46.68 129.241 46.96C128.981 47.2333 128.851 47.5867 128.851 48.02C128.851 48.4533 128.981 48.81 129.241 49.09C129.508 49.3633 129.848 49.5 130.261 49.5ZM134.115 50.5V43.3H135.395V50.5H134.115ZM138.413 50.62C137.986 50.62 137.636 50.5533 137.363 50.42C137.089 50.28 136.886 50.0967 136.753 49.87C136.619 49.6433 136.553 49.3933 136.553 49.12C136.553 48.66 136.733 48.2867 137.093 48C137.453 47.7133 137.993 47.57 138.713 47.57H139.973V47.45C139.973 47.11 139.876 46.86 139.683 46.7C139.489 46.54 139.249 46.46 138.963 46.46C138.703 46.46 138.476 46.5233 138.283 46.65C138.089 46.77 137.969 46.95 137.923 47.19H136.673C136.706 46.83 136.826 46.5167 137.033 46.25C137.246 45.9833 137.519 45.78 137.853 45.64C138.186 45.4933 138.559 45.42 138.973 45.42C139.679 45.42 140.236 45.5967 140.643 45.95C141.049 46.3033 141.253 46.8033 141.253 47.45V50.5H140.163L140.043 49.7C139.896 49.9667 139.689 50.1867 139.423 50.36C139.163 50.5333 138.826 50.62 138.413 50.62ZM138.703 49.62C139.069 49.62 139.353 49.5 139.553 49.26C139.759 49.02 139.889 48.7233 139.943 48.37H138.853C138.513 48.37 138.269 48.4333 138.123 48.56C137.976 48.68 137.903 48.83 137.903 49.01C137.903 49.2033 137.976 49.3533 138.123 49.46C138.269 49.5667 138.463 49.62 138.703 49.62ZM144.904 50.62C144.398 50.62 143.951 50.51 143.564 50.29C143.178 50.07 142.871 49.7633 142.644 49.37C142.424 48.9767 142.314 48.5267 142.314 48.02C142.314 47.5133 142.424 47.0633 142.644 46.67C142.871 46.2767 143.178 45.97 143.564 45.75C143.951 45.53 144.398 45.42 144.904 45.42C145.538 45.42 146.071 45.5867 146.504 45.92C146.938 46.2467 147.214 46.7 147.334 47.28H145.984C145.918 47.04 145.784 46.8533 145.584 46.72C145.391 46.58 145.161 46.51 144.894 46.51C144.541 46.51 144.241 46.6433 143.994 46.91C143.748 47.1767 143.624 47.5467 143.624 48.02C143.624 48.4933 143.748 48.8633 143.994 49.13C144.241 49.3967 144.541 49.53 144.894 49.53C145.161 49.53 145.391 49.4633 145.584 49.33C145.784 49.1967 145.918 49.0067 145.984 48.76H147.334C147.214 49.32 146.938 49.77 146.504 50.11C146.071 50.45 145.538 50.62 144.904 50.62ZM150.88 50.62C150.38 50.62 149.937 50.5133 149.55 50.3C149.164 50.0867 148.86 49.7867 148.64 49.4C148.42 49.0133 148.31 48.5667 148.31 48.06C148.31 47.5467 148.417 47.09 148.63 46.69C148.85 46.29 149.15 45.98 149.53 45.76C149.917 45.5333 150.37 45.42 150.89 45.42C151.377 45.42 151.807 45.5267 152.18 45.74C152.554 45.9533 152.844 46.2467 153.05 46.62C153.264 46.9867 153.37 47.3967 153.37 47.85C153.37 47.9233 153.367 48 153.36 48.08C153.36 48.16 153.357 48.2433 153.35 48.33H149.58C149.607 48.7167 149.74 49.02 149.98 49.24C150.227 49.46 150.524 49.57 150.87 49.57C151.13 49.57 151.347 49.5133 151.52 49.4C151.7 49.28 151.834 49.1267 151.92 48.94H153.22C153.127 49.2533 152.97 49.54 152.75 49.8C152.537 50.0533 152.27 50.2533 151.95 50.4C151.637 50.5467 151.28 50.62 150.88 50.62ZM150.89 46.46C150.577 46.46 150.3 46.55 150.06 46.73C149.82 46.9033 149.667 47.17 149.6 47.53H152.07C152.05 47.2033 151.93 46.9433 151.71 46.75C151.49 46.5567 151.217 46.46 150.89 46.46Z" fill="#7A797D"/>
</svg>
